<svg width="1165" height="819" viewBox="0 0 1165 819" fill="none" xmlns="http://www.w3.org/2000/svg">
<mask id="mask0" mask-type="alpha" maskUnits="userSpaceOnUse" x="0" y="0" width="1165" height="819">
<rect width="1165" height="819" fill="#C4C4C4"/>
</mask>
<g mask="url(#mask0)">
<path d="M807.91 342.597C792.035 350.544 785.608 369.857 793.555 385.732C801.503 401.608 820.815 408.035 836.691 400.087C852.566 392.14 858.993 372.827 851.046 356.952C843.098 341.076 823.786 334.649 807.91 342.597Z" fill="#272727"/>
<path d="M306.251 642.972L305.778 642.813L305.55 643.488L306.262 643.472L306.251 642.972ZM370.637 452.083L370.369 451.661L370.22 451.756L370.164 451.924L370.637 452.083ZM51.1651 911.861L51.1695 911.361L49.7022 911.348L50.8563 912.254L51.1651 911.861ZM257.203 1073.63L256.894 1074.02L257.077 1074.17L257.305 1074.12L257.203 1073.63ZM1016.05 271.627L1016.4 271.261L1016.14 271.025L1015.83 271.18L1016.05 271.627ZM1282.65 519.525L1282.72 520.02L1283.76 519.875L1282.99 519.159L1282.65 519.525ZM888.375 574.258L888.306 573.763L887.45 573.882L887.98 574.564L888.375 574.258ZM1044.43 775.606L1044.47 776.105L1045.39 776.03L1044.82 775.3L1044.43 775.606ZM633.87 635.664L423.522 914.828L424.321 915.43L634.669 636.266L633.87 635.664ZM634.259 635.465L306.241 642.473L306.262 643.472L634.28 636.465L634.259 635.465ZM306.725 643.132L371.111 452.243L370.164 451.924L305.778 642.813L306.725 643.132ZM370.906 452.505L606.902 302.341L606.365 301.497L370.369 451.661L370.906 452.505ZM633.94 636.341L814.962 794.622L815.62 793.87L634.599 635.588L633.94 636.341ZM634.678 636.253L823.458 368.536L822.641 367.959L633.861 635.677L634.678 636.253ZM634.768 635.924L607.132 301.878L606.135 301.96L633.771 636.006L634.768 635.924ZM423.926 914.629L51.1695 911.361L51.1607 912.361L423.917 915.629L423.926 914.629ZM50.8563 912.254L256.894 1074.02L257.512 1073.24L51.4738 911.468L50.8563 912.254ZM257.305 1074.12L655.047 991.451L654.844 990.472L257.101 1073.14L257.305 1074.12ZM423.765 915.604L654.79 991.437L655.102 990.487L424.077 914.654L423.765 915.604ZM606.487 302.397L822.903 368.725L823.196 367.769L606.78 301.441L606.487 302.397ZM823.273 368.694L1016.28 272.074L1015.83 271.18L822.826 367.8L823.273 368.694ZM1015.71 271.993L1282.31 519.891L1282.99 519.159L1016.4 271.261L1015.71 271.993ZM1282.58 519.029L888.306 573.763L888.444 574.753L1282.72 520.02L1282.58 519.029ZM887.98 574.564L1044.03 775.913L1044.82 775.3L888.77 573.952L887.98 574.564ZM1044.39 775.108L815.25 793.748L815.332 794.744L1044.47 776.105L1044.39 775.108ZM814.903 793.93L654.558 990.646L655.333 991.278L815.679 794.562L814.903 793.93Z" fill="#272727"/>
<path d="M856.208 144.977C846.304 149.935 842.295 161.983 847.253 171.888C852.211 181.792 864.259 185.801 874.163 180.843C884.067 175.885 888.077 163.837 883.118 153.933C878.16 144.029 866.112 140.019 856.208 144.977Z" fill="#272727"/>
<path d="M49.1132 681.797C34.6913 689.017 28.8528 706.561 36.0726 720.983C43.2923 735.405 60.8363 741.243 75.2581 734.023C89.68 726.804 95.5185 709.26 88.2988 694.838C81.079 680.416 63.5351 674.577 49.1132 681.797Z" fill="#272727"/>
<line x1="62.1436" y1="707.518" x2="296.144" y2="643.518" stroke="#272727"/>
<line x1="607.036" y1="301.561" x2="866.036" y2="160.561" stroke="#272727"/>
<line x1="865.571" y1="162.597" x2="1018.57" y2="274.597" stroke="#272727"/>
<path d="M998.745 243.39C982.87 251.338 976.443 270.65 984.39 286.525C992.338 302.401 1011.65 308.828 1027.53 300.881C1043.4 292.933 1049.83 273.621 1041.88 257.745C1033.93 241.87 1014.62 235.443 998.745 243.39Z" fill="#272727"/>
<path d="M791.219 744.34C758.513 760.713 745.273 800.499 761.646 833.205C778.018 865.911 817.805 879.151 850.51 862.779C883.216 846.406 896.457 806.62 880.084 773.914C863.711 741.208 823.925 727.968 791.219 744.34Z" fill="#272727"/>
<path d="M611.233 599.115C587.666 610.913 578.023 639.379 589.696 662.695C601.368 686.012 629.935 695.349 653.503 683.551C677.07 671.753 686.712 643.287 675.04 619.971C663.367 596.655 634.8 587.317 611.233 599.115Z" fill="#272727"/>
<path opacity="0.3" d="M601 668C601 668 610.632 652.546 631.5 652.013C652.369 651.48 662 668 662 668" stroke="#8E8F91"/>
<circle opacity="0.3" cx="632" cy="627" r="15" stroke="#8E8F91"/>
<path opacity="0.3" fill-rule="evenodd" clip-rule="evenodd" d="M600.316 578.407C565.645 595.764 551.609 637.94 568.966 672.61C586.322 707.281 628.498 721.317 663.169 703.96C697.839 686.604 711.875 644.428 694.519 609.757C677.162 575.087 634.986 561.051 600.316 578.407Z" stroke="#EDAD47" stroke-width="2"/>
<path opacity="0.5" fill-rule="evenodd" clip-rule="evenodd" d="M584.993 547.976C533.944 573.532 513.277 635.633 538.833 686.682C564.389 737.732 626.489 758.398 677.539 732.843C728.588 707.287 749.255 645.186 723.699 594.137C698.143 543.087 636.042 522.421 584.993 547.976Z" stroke="#EDAD47" stroke-width="0.5"/>
<path d="M872.844 547.101C856.969 555.048 850.542 574.361 858.489 590.236C866.437 606.112 885.749 612.539 901.624 604.591C917.5 596.644 923.927 577.331 915.979 561.456C908.032 545.58 888.72 539.153 872.844 547.101Z" fill="#272727"/>
<path d="M1035.61 758.459C1026.41 763.069 1022.68 774.27 1027.29 783.478C1031.9 792.686 1043.1 796.413 1052.31 791.804C1061.51 787.194 1065.24 775.993 1060.63 766.785C1056.02 757.577 1044.82 753.85 1035.61 758.459Z" fill="#272727"/>
<path opacity="0.2" d="M1033 786C1033 786 1036.63 779.239 1044.5 779.006C1052.37 778.772 1056 786 1056 786" stroke="#8E8F91"/>
<circle opacity="0.2" cx="1044" cy="769" r="6" stroke="#8E8F91"/>
<path d="M298.764 627.765C289.557 632.374 285.829 643.576 290.438 652.783C295.048 661.991 306.249 665.719 315.457 661.109C324.665 656.5 328.392 645.299 323.783 636.091C319.173 626.883 307.972 623.155 298.764 627.765Z" fill="#272727"/>
<path opacity="0.2" d="M296 655C296 655 299.632 648.239 307.5 648.006C315.369 647.772 319 655 319 655" stroke="#8E8F91"/>
<circle opacity="0.2" cx="307" cy="638" r="6" stroke="#8E8F91"/>
<path d="M598.208 283.977C588.304 288.935 584.295 300.984 589.253 310.888C594.211 320.792 606.259 324.801 616.163 319.843C626.067 314.885 630.077 302.837 625.118 292.933C620.16 283.029 608.112 279.019 598.208 283.977Z" fill="#272727"/>
<path d="M364.36 443.274C357.934 446.491 355.332 454.309 358.549 460.736C361.766 467.162 369.584 469.764 376.011 466.547C382.438 463.33 385.04 455.512 381.822 449.085C378.605 442.658 370.787 440.056 364.36 443.274Z" fill="#272727"/>
<path opacity="0.2" d="M804 387C804 387 809.842 377.341 822.5 377.008C835.158 376.675 841 387 841 387" stroke="#8E8F91"/>
<circle opacity="0.2" cx="823" cy="362" r="9" stroke="#8E8F91"/>
<path d="M855.933 144.977C846.029 149.935 842.019 161.984 846.977 171.888C851.935 181.792 863.984 185.801 873.888 180.843C883.792 175.885 887.801 163.837 882.843 153.933C877.885 144.029 865.837 140.019 855.933 144.977Z" fill="#272727"/>
<line x1="867.505" y1="175.071" x2="838.505" y2="-27.9293" stroke="#272727"/>
</g>
</svg>
