<svg width="40" height="40" viewBox="0 0 40 40" fill="none" xmlns="http://www.w3.org/2000/svg">
<g clip-path="url(#clip0)">
<path d="M12.8475 23.6686L22.4366 14.0773L25.7979 17.4385L16.2067 27.0297L12.8475 23.6686ZM27.4242 10.9281L29.2386 12.7425C29.5872 13.091 29.5872 13.6515 29.2386 14.0002C29.2386 14.0002 29.2386 14.0002 29.2386 14.0002L27.5649 15.6739L24.2036 12.3125L25.5874 10.9287C25.5875 10.9286 25.5877 10.9284 25.5878 10.9283C26.0966 10.4216 26.9188 10.4226 27.4242 10.9281ZM10.5124 29.4376L11.3291 25.7678L14.1221 28.5624L10.5124 29.4376Z" stroke="#8E8F91"/>
</g>
<path d="M0.5 7.5L0.5 2.5C0.5 1.39543 1.39543 0.5 2.5 0.5L7 0.5" stroke="#8E8F91"/>
<path d="M0.5 32.5L0.5 37.5C0.5 38.6046 1.39543 39.5 2.5 39.5L7 39.5" stroke="#8E8F91"/>
<path d="M39.5 7.5L39.5 2.5C39.5 1.39543 38.6046 0.5 37.5 0.5L33 0.5" stroke="#8E8F91"/>
<path d="M39.5 32.5L39.5 37.5C39.5 38.6046 38.6046 39.5 37.5 39.5L33 39.5" stroke="#8E8F91"/>
<defs>
<clipPath id="clip0">
<rect width="20" height="20" fill="white" transform="translate(10 10)"/>
</clipPath>
</defs>
</svg>