<svg width="40" height="40" viewBox="0 0 40 40" fill="none" xmlns="http://www.w3.org/2000/svg">
<path d="M19.9512 13C12.7805 12.9999 8 19.8293 8 19.8293C8 19.8293 12.0976 27 20.2927 27C28.4878 27 32.5854 19.8293 32.5854 19.8293C32.5854 19.8293 27.122 13.0001 19.9512 13Z" stroke="#8E8F91"/>
<circle cx="20.2926" cy="20.1708" r="4.09756" stroke="#8E8F91"/>
<path d="M0.5 7.5L0.5 2.5C0.5 1.39543 1.39543 0.5 2.5 0.5L7 0.5" stroke="#8E8F91"/>
<path d="M0.5 32.5L0.5 37.5C0.5 38.6046 1.39543 39.5 2.5 39.5L7 39.5" stroke="#8E8F91"/>
<path d="M39.5 7.5L39.5 2.5C39.5 1.39543 38.6046 0.5 37.5 0.5L33 0.5" stroke="#8E8F91"/>
<path d="M39.5 32.5L39.5 37.5C39.5 38.6046 38.6046 39.5 37.5 39.5L33 39.5" stroke="#8E8F91"/>
</svg>
